<svg xmlns="http://www.w3.org/2000/svg" viewBox="0 0 720 720"><path stroke-width=".53" stroke="#40464B" d="M44.14 558.4h670.38M44.14 406.87h670.38M44.14 255.34h670.38M44.14 103.81h670.38M44.14 28.05h670.38M96.47 683.08V5.48M233.6 683.08V5.48M370.73 683.08V5.48M507.86 683.08V5.48M644.99 683.08V5.48"/><path stroke-width="1.07" stroke="#40464B" d="M44.14 634.17h670.38M44.14 482.64h670.38M44.14 331.11h670.38M44.14 179.58h670.38M165.04 683.08V5.48M302.17 683.08V5.48M439.3 683.08V5.48M576.43 683.08V5.48M713.56 683.08V5.48"/><path stroke-width="1.07" stroke="#b3b3b3" stroke-dasharray="5.69,5.69" d="M44.14 480.06h670.38"/><circle cx="110.62" cy="581.87" r="5.92" stroke-width="1.42" stroke="#d1383d" stroke-opacity=".7" fill="#d1383d" fill-opacity=".7"/><circle cx="122.03" cy="632.02" r="5.92" stroke-width="1.42" stroke="#d1383d" stroke-opacity=".7" fill="#d1383d" fill-opacity=".7"/><circle cx="121.48" cy="652.28" r="5.92" stroke-width="1.42" stroke="#d1383d" stroke-opacity=".7" fill="#d1383d" fill-opacity=".7"/><circle cx="166.13" cy="361.41" r="5.92" stroke-width="1.42" stroke="#d1383d" stroke-opacity=".7" fill="#d1383d" fill-opacity=".7"/><circle cx="152.59" cy="594.17" r="5.92" stroke-width="1.42" stroke="#d1383d" stroke-opacity=".7" fill="#d1383d" fill-opacity=".7"/><circle cx="684.05" cy="458.02" r="5.92" stroke-width="1.42" stroke="#d1383d" stroke-opacity=".7" fill="#d1383d" fill-opacity=".7"/><circle cx="311.74" cy="293.05" r="5.92" stroke-width="1.42" stroke="#d1383d" stroke-opacity=".7" fill="#d1383d" fill-opacity=".7"/><circle cx="139.61" cy="249.88" r="5.92" stroke-width="1.42" stroke="#d1383d" stroke-opacity=".7" fill="#d1383d" fill-opacity=".7"/><circle cx="466.67" cy="585.17" r="5.92" stroke-width="1.42" stroke="#d1383d" stroke-opacity=".7" fill="#d1383d" fill-opacity=".7"/><circle cx="681.88" cy="502.21" r="5.92" stroke-width="1.42" stroke="#d1383d" stroke-opacity=".7" fill="#d1383d" fill-opacity=".7"/><circle cx="94.5" cy="369.3" r="5.92" stroke-width="1.42" stroke="#d1383d" stroke-opacity=".7" fill="#d1383d" fill-opacity=".7"/><circle cx="252.83" cy="461.34" r="5.92" stroke-width="1.42" stroke="#d1383d" stroke-opacity=".7" fill="#d1383d" fill-opacity=".7"/><circle cx="122.64" cy="575.49" r="5.92" stroke-width="1.42" stroke="#d1383d" stroke-opacity=".7" fill="#d1383d" fill-opacity=".7"/><circle cx="173.7" cy="36.28" r="5.92" stroke-width="1.42" stroke="#d1383d" stroke-opacity=".7" fill="#d1383d" fill-opacity=".7"/><circle cx="98.09" cy="567.78" r="5.92" stroke-width="1.42" stroke="#d1383d" stroke-opacity=".7" fill="#d1383d" fill-opacity=".7"/><circle cx="116.33" cy="495.52" r="5.92" stroke-width="1.42" stroke="#d1383d" stroke-opacity=".7" fill="#d1383d" fill-opacity=".7"/><circle cx="74.61" cy="230.23" r="5.92" stroke-width="1.42" stroke="#d1383d" stroke-opacity=".7" fill="#d1383d" fill-opacity=".7"/><circle cx="93.29" cy="304.69" r="5.92" stroke-width="1.42" stroke="#d1383d" stroke-opacity=".7" fill="#d1383d" fill-opacity=".7"/><circle cx="88.22" cy="442.79" r="5.92" stroke-width="1.42" stroke="#d1383d" stroke-opacity=".7" fill="#d1383d" fill-opacity=".7"/><circle cx="77.57" cy="554.87" r="5.92" stroke-width="1.42" stroke="#d1383d" stroke-opacity=".7" fill="#d1383d" fill-opacity=".7"/><circle cx="155.05" cy="66.9" r="5.92" stroke-width="1.42" stroke="#d1383d" stroke-opacity=".7" fill="#d1383d" fill-opacity=".7"/><path stroke-width="1.07" stroke="#c4c8cc" d="M104.83 598.8l5.41-15.49"/><text x="47.77" y="609.2" font-size="12" >Academic researcher</text><text x="74.78" y="625.51" font-size="12" >Data or business analyst</text><path stroke-width="1.07" stroke="#c4c8cc" d="M126.01 645.61l-3.09 6.56"/><text x="127.81" y="647.1" font-size="12" >Data scientist or machine learning specialist</text><text x="115.62" y="353.97" font-size="12" >Database administrator</text><text x="139.04" y="587.68" font-size="12" >Designer</text><text x="600.19" y="451.54" font-size="12" >Developer, back-end</text><text x="192.5" y="285.87" font-size="12" >Developer, desktop or enterprise applications</text><text x="81.09" y="243.38" font-size="12" >Developer, embedded applications or devices</text><text x="413.54" y="577.99" font-size="12" >Developer, front-end</text><text x="602.21" y="495.64" font-size="12" >Developer, full-stack</text><text x="47.96" y="384.53" font-size="12" >Developer, game or graphics</text><text x="206.19" y="454.15" font-size="12" >Developer, mobile</text><text x="104.59" y="568.97" font-size="12" >Developer, QA or test</text><text x="127.85" y="29.08" font-size="12" >DevOps specialist</text><text x="47.74" y="570.59" font-size="12" >Educator</text><text x="78.69" y="488.34" font-size="12" >Engineer, data</text><text x="47.75" y="223.69" font-size="12" >Engineer, site reliability</text><text x="47.74" y="297.49" font-size="12" >Engineering manager</text><text x="52.2" y="436" font-size="12" >Product manager</text><text x="48.01" y="547.46" font-size="12" >Scientist</text><text x="100.42" y="59.71" font-size="12" >System administrator</text><text x="21.47" y="638.11" font-size="11" >10x</text><text x="21.47" y="486.58" font-size="11" >15x</text><text x="21.47" y="335.05" font-size="11" >20x</text><text x="21.47" y="183.51" font-size="11" >25x</text><text x="151.27" y="695.89" font-size="11" >5,000</text><text x="285.34" y="695.89" font-size="11" >10,000</text><text x="422.48" y="695.89" font-size="11" >15,000</text><text x="559.61" y="695.89" font-size="11" >20,000</text><text x="696.74" y="695.89" font-size="11" >25,000</text><text x="321.26" y="711.88" font-size="11" font-weight="700" >Number of developers</text><text transform="rotate(-90 227.255 213.905)" font-size="11" font-weight="700" >Relative participation by men/women</text><style>text{font-family:arial;fill:#9fa6ad}</style></svg>